PathFileType	4	(X/Y/Z)	SB25.trc
DataRate	CameraRate	NumFrames	NumMarkers	Units	OrigDataRate	OrigDataStartFrame	OrigNumFrames
60.0	60.0	12	25	m	60.0	266	531
Frame#	Time	R.ASIS			L.ASIS			V.Sacral			R.Knee.Lat			R.Knee.Med			L.Knee.Lat			L.Knee.Med			R.Ankle.Lat			R.Ankle.Med			L.Ankle.Lat			L.Ankle.Med			R.Shank.Front			L.Shank.Front			R.Heel			L.Heel			R.Toe.Tip			L.Toe.Tip			R.Midfoot.Lat			L.Midfoot.Lat			R.Toe.Med			L.Toe.Med			Sternum			Top.Head			R.Acromium			L.Acromium		
		X1	Y1	Z1	X2	Y2	Z2	X3	Y3	Z3	X4	Y4	Z4	X5	Y5	Z5	X6	Y6	Z6	X7	Y7	Z7	X8	Y8	Z8	X9	Y9	Z9	X10	Y10	Z10	X11	Y11	Z11	X12	Y12	Z12	X13	Y13	Z13	X14	Y14	Z14	X15	Y15	Z15	X16	Y16	Z16	X17	Y17	Z17	X18	Y18	Z18	X19	Y19	Z19	X20	Y20	Z20	X21	Y21	Z21	X22	Y22	Z22	X23	Y23	Z23	X24	Y24	Z24	X25	Y25	Z25

266	4.416667	28.916049	0.930421	0.295060	28.845245	0.928507	-0.014360	28.729274	0.842357	0.173875	28.790697	0.336943	0.255741	28.790803	0.346515	0.170018	29.006991	0.390547	0.085759	29.011891	0.409692	0.168667	28.404838	0.499671	0.217981	28.409532	0.503499	0.156035	29.050686	-0.019144	0.155632	29.044323	-0.009572	0.218517	28.750444	0.308226	0.203701	29.068623	0.375232	0.136757	28.408906	0.604965	0.143207	29.012307	-0.122525	0.212363	28.178957	0.444152	0.050700	29.295757	-0.086150	0.259403	28.235270	0.518815	0.115672	29.206176	-0.112952	0.197767	28.286789	0.486269	0.047157	29.188967	-0.088065	0.284325	28.957455	1.361172	0.107032	28.913236	1.728745	0.149476	28.938783	1.353514	0.304238	28.786011	1.351599	-0.033758
267	4.433333	29.052351	0.922763	0.295272	28.981548	0.917020	-0.014148	28.866515	0.830870	0.175755	28.980186	0.327370	0.256788	28.976016	0.336943	0.171273	29.099598	0.359916	0.086387	29.107104	0.377146	0.170025	28.609552	0.524558	0.214857	28.615915	0.528387	0.151972	29.108043	-0.051690	0.171693	29.107624	-0.040203	0.233431	28.935656	0.302483	0.204957	29.160291	0.336943	0.135716	28.612683	0.629853	0.138415	29.071333	-0.155070	0.227486	28.383880	0.469039	0.051852	29.358329	-0.132097	0.241780	28.439254	0.543703	0.115155	29.261552	-0.151241	0.190781	28.489835	0.511157	0.044971	29.255710	-0.130182	0.281928	29.081451	1.355428	0.100987	29.039840	1.719173	0.144160	29.058712	1.349685	0.302676	28.915952	1.336284	-0.040951
268	4.450000	29.188654	0.915106	0.295483	29.117850	0.905533	-0.013936	29.002818	0.821298	0.175967	29.173950	0.323541	0.257627	29.165505	0.331199	0.172321	29.189597	0.333114	0.086285	29.201379	0.348429	0.169714	28.805924	0.534131	0.216426	28.812287	0.537960	0.153541	29.147359	-0.072749	0.186920	29.152884	-0.061262	0.247511	29.125875	0.300568	0.203397	29.249352	0.304397	0.133945	28.803840	0.639425	0.138523	29.108771	-0.170386	0.239375	28.586404	0.463296	0.056549	29.398793	-0.164642	0.227806	28.635835	0.539874	0.120999	29.295550	-0.178044	0.184838	28.685477	0.511157	0.049147	29.299928	-0.160814	0.274629	29.209933	1.347770	0.099008	29.164045	1.709601	0.142390	29.178642	1.345856	0.301115	29.051107	1.322883	-0.046684
269	4.466667	29.326625	0.907448	0.294757	29.251545	0.897876	-0.014455	29.139329	0.813640	0.180454	29.370113	0.329285	0.254920	29.359061	0.335028	0.168883	29.276989	0.312055	0.085452	29.293047	0.327370	0.168673	28.992284	0.524558	0.223626	28.998647	0.532216	0.160741	29.165087	-0.076578	0.198914	29.170613	-0.063177	0.259504	29.320161	0.306311	0.197353	29.331738	0.275680	0.135928	28.962146	0.629853	0.150520	29.122016	-0.160814	0.247302	28.775580	0.421178	0.068755	29.411411	-0.172300	0.222905	28.811453	0.505414	0.136438	29.306708	-0.181872	0.185151	28.860886	0.490098	0.060310	29.314632	-0.166557	0.277340	29.341959	1.342027	0.099428	29.285122	1.703858	0.146773	29.304724	1.342027	0.302682	29.185533	1.313310	-0.049809
270	4.483333	29.466264	0.899790	0.293091	29.383572	0.890218	-0.014035	29.276570	0.805982	0.182335	29.568675	0.342686	0.248667	29.551678	0.348429	0.163778	29.362713	0.298654	0.085559	29.386384	0.312055	0.166694	29.170092	0.495842	0.231243	29.174786	0.509243	0.169296	29.168633	-0.053605	0.201312	29.176766	-0.042118	0.262633	29.519453	0.317798	0.188493	29.409849	0.252707	0.138120	29.107834	0.595393	0.167418	29.117010	-0.132097	0.250117	28.964964	0.350344	0.085237	29.403590	-0.168471	0.220715	28.989887	0.440323	0.156882	29.296488	-0.174215	0.186506	29.033897	0.442237	0.075018	29.307749	-0.160814	0.276819	29.477532	1.334369	0.102247	29.402861	1.696200	0.153033	29.430807	1.334369	0.304249	29.325173	1.303738	-0.051475
271	4.500000	29.601837	0.897876	0.295910	29.525089	0.886389	-0.012363	29.414541	0.802153	0.181608	29.759415	0.367574	0.240225	29.740750	0.371403	0.156273	29.451043	0.292910	0.086395	29.477322	0.304397	0.168260	29.341539	0.447981	0.231455	29.342896	0.465211	0.171386	29.199815	-0.019144	0.190363	29.207948	-0.007658	0.251684	29.715408	0.333114	0.181510	29.489420	0.241220	0.135098	29.262804	0.534131	0.181291	29.129837	-0.093808	0.249492	29.182088	0.266108	0.108080	29.401713	-0.168471	0.217378	29.189699	0.354173	0.176284	29.295550	-0.170386	0.184838	29.224950	0.365659	0.090561	29.312755	-0.153156	0.274003	29.609975	1.334369	0.111219	29.523208	1.694285	0.160023	29.552822	1.330540	0.310300	29.470027	1.301824	-0.051680
272	4.516667	29.731673	0.901704	0.304152	29.681310	0.892132	-0.007979	29.555641	0.804068	0.174728	29.943481	0.403948	0.235536	29.928153	0.409692	0.149708	29.540104	0.304397	0.084624	29.562107	0.312055	0.166698	29.519869	0.379060	0.232189	29.516950	0.392462	0.172329	29.267184	0.007658	0.165648	29.278654	0.013401	0.225092	29.911779	0.359916	0.183079	29.574518	0.252707	0.122377	29.438005	0.434579	0.188178	29.181668	-0.040203	0.240107	29.448018	0.158899	0.147402	29.421528	-0.202931	0.201839	29.425073	0.239306	0.204238	29.315052	-0.170386	0.180458	29.452503	0.252707	0.116325	29.343207	-0.145498	0.265661	29.739499	1.342027	0.130619	29.650959	1.698114	0.160651	29.662218	1.332455	0.321253	29.621972	1.307567	-0.047088
273	4.533333	29.854836	0.907448	0.316147	29.845353	0.903619	-0.001405	29.700808	0.809811	0.163364	30.117535	0.446066	0.236478	30.109090	0.455638	0.151172	29.633754	0.327370	0.071486	29.648143	0.335028	0.155646	29.729485	0.294825	0.241684	29.723959	0.302483	0.181093	29.351970	0.032546	0.128942	29.364379	0.030631	0.190054	30.105752	0.400119	0.188194	29.662015	0.273766	0.106110	29.633855	0.304397	0.196630	29.262073	0.026802	0.219043	29.740019	0.044032	0.194025	29.421528	-0.216332	0.201839	29.687457	0.122525	0.241162	29.334970	-0.151241	0.184630	29.707065	0.130182	0.151058	29.379812	-0.122525	0.260448	29.864955	1.355428	0.154503	29.777771	1.707686	0.159612	29.765670	1.336284	0.333353	29.776733	1.322883	-0.037490
274	4.550000	29.977789	0.913191	0.323867	30.000844	0.913191	0.005585	29.840969	0.813640	0.154816	30.272088	0.474783	0.241801	30.266250	0.488184	0.157224	29.747114	0.348429	0.058244	29.752952	0.354173	0.142821	29.955474	0.214418	0.252952	29.949009	0.216332	0.190693	29.435713	0.072749	0.106000	29.448121	0.067006	0.167113	30.280953	0.428836	0.195080	29.763486	0.289081	0.095162	29.845870	0.183787	0.202579	29.353637	0.107209	0.198292	30.027641	-0.038289	0.221146	29.422570	-0.168471	0.223218	29.955891	0.034460	0.261504	29.362919	-0.088065	0.195268	29.970284	0.040203	0.169940	29.421109	-0.063177	0.263577	29.994479	1.365001	0.173904	29.909068	1.713430	0.162639	29.874858	1.340113	0.340029	29.929825	1.334369	-0.026954
275	4.566667	30.102203	0.917020	0.326373	30.139962	0.917020	0.010803	29.972788	0.819383	0.150960	30.399317	0.480526	0.249312	30.395148	0.492013	0.163797	29.883208	0.352258	0.054180	29.885708	0.358002	0.140634	30.178230	0.134011	0.250663	30.171765	0.135926	0.188404	29.519559	0.143584	0.102769	29.527692	0.139755	0.164090	30.428623	0.436494	0.199881	29.886231	0.290996	0.098606	30.079576	0.086150	0.196327	29.464911	0.218247	0.177437	30.315263	-0.072749	0.213123	29.445200	-0.063177	0.247830	30.230686	-0.022973	0.254105	29.418190	0.030631	0.203717	30.242472	-0.015316	0.161812	29.481387	0.047861	0.269210	30.129529	1.366915	0.183605	30.040573	1.717259	0.169942	29.999272	1.342027	0.342535	30.079372	1.342027	-0.018816
276	4.583333	30.224010	0.920849	0.328149	30.268652	0.917020	0.013100	30.097931	0.821298	0.150859	30.506837	0.469039	0.256927	30.502667	0.476697	0.171412	30.032546	0.344600	0.058042	30.034108	0.352258	0.142827	30.397545	0.068920	0.230540	30.389412	0.072749	0.169220	29.629060	0.241220	0.098288	29.632917	0.243135	0.159817	30.551368	0.430751	0.203325	30.020343	0.289081	0.106639	30.323085	0.000000	0.180168	29.592559	0.340772	0.158356	30.593292	-0.078492	0.184137	29.496091	0.091893	0.271922	30.500371	-0.061262	0.229813	29.496301	0.178044	0.205908	30.506214	-0.049776	0.138667	29.559497	0.185701	0.271402	30.271255	1.365001	0.189553	30.172287	1.721088	0.181521	30.128692	1.343942	0.342225	30.227042	1.345856	-0.014015
277	4.600000	30.348424	0.920849	0.330654	30.398280	0.917020	0.017066	30.224744	0.825127	0.149819	30.608203	0.446066	0.261414	30.603095	0.453724	0.174230	30.188559	0.336943	0.058150	30.188452	0.346515	0.143874	30.585991	0.032546	0.210209	30.577858	0.038289	0.148888	29.772350	0.335028	0.083586	29.774539	0.340772	0.146054	30.658679	0.419264	0.206665	30.162799	0.289081	0.109980	30.530303	-0.063177	0.158064	29.743670	0.444152	0.145845	30.819281	-0.086150	0.160261	29.590783	0.235477	0.280163	30.717809	-0.089979	0.206353	29.610808	0.310140	0.198611	30.719376	-0.070835	0.115415	29.673274	0.308226	0.266711	30.409643	1.363086	0.197378	30.309945	1.721088	0.191952	30.259988	1.342027	0.345253	30.370436	1.347770	-0.009006
